<svg xmlns="http://www.w3.org/2000/svg" viewBox="0 0 146.57 83.52">
  <defs>
    <style>
      .cls-1 {
        isolation: isolate;
      }
    </style>
  </defs>
  <title>Asset 1freshBeautyLogo</title>
  <g id="Layer_2" data-name="Layer 2">
    <g id="Layer_1-2" data-name="Layer 1">
      <g id="Layer_2-2" data-name="Layer 2">
        <g id="Layer_1-2-2" data-name="Layer 1-2">
          <g class="cls-1">
            <path d="M30.24,60.14a14.17,14.17,0,0,1-3-.81,4.82,4.82,0,0,1-1.73-1.14,2.88,2.88,0,0,1-.74-1.5,9,9,0,0,1-.11-1.93c0-.71.08-1.51.16-2.39s.15-1.85.17-2.91V47.12c0-.87,0-1.74,0-2.62s0-1.74-.07-2.58,0-1.58-.06-2.22,0-1.17-.05-1.56,0-.61,0-.63l-.3-.3a2.64,2.64,0,0,1-.35.44.45.45,0,0,1-.54.15c-.71-.27-1.06-.66-1-1.17A2.71,2.71,0,0,1,23.4,35a10,10,0,0,1,2.3-1.71A17.6,17.6,0,0,1,29,31.88a18.87,18.87,0,0,1,3.82-.76,12.37,12.37,0,0,1,3.9.26,4.36,4.36,0,0,1,3,.75A2.14,2.14,0,0,1,40.35,34a6.74,6.74,0,0,1-.77,2.45,23.08,23.08,0,0,1-1.49,2.49c-.53.76-1,1.43-1.43,2s-.6.87-.55,1A18.25,18.25,0,0,1,42,43.43a9,9,0,0,1,3.36,2.63,5.63,5.63,0,0,1,1.13,3.28,7.73,7.73,0,0,1-.76,3.49,11.45,11.45,0,0,1-2.34,3.25,14.18,14.18,0,0,1-3.59,2.6,16.51,16.51,0,0,1-4.51,1.5A14.06,14.06,0,0,1,30.24,60.14ZM26.46,41.55c0,.2,0,.53,0,1s.06,1,.1,1.51.07,1,.09,1.5.05.79.07,1A10.1,10.1,0,0,1,29,44.71c.88-.55,1.8-1.08,2.75-1.6s1.88-1.06,2.8-1.61a11.36,11.36,0,0,0,2.38-1.9,6.83,6.83,0,0,0,1.48-2.41A5.86,5.86,0,0,0,38.48,34a4.43,4.43,0,0,0-1.71-.87,10.4,10.4,0,0,0-2.33-.39,14,14,0,0,0-2.58.09,11.89,11.89,0,0,0-2.47.57,7.19,7.19,0,0,0-2,1.08,3.6,3.6,0,0,0-1.19,1.56c0,.3,0,.69,0,1.19s.06,1,.1,1.54.07,1.05.09,1.56S26.46,41.25,26.46,41.55ZM28.8,58.1A14.66,14.66,0,0,0,35,59a12,12,0,0,0,5.33-1.63,9.73,9.73,0,0,0,3.58-3.81A9.43,9.43,0,0,0,44.86,48a3.93,3.93,0,0,0-1.37-2,7.38,7.38,0,0,0-2.11-1.21,13.14,13.14,0,0,0-4.14-1,7,7,0,0,0-2.9.44,6.75,6.75,0,0,0-2.08,1.36l-1.7,1.67a9.85,9.85,0,0,1-1.8,1.39,4.26,4.26,0,0,1-2.3.54V54c.05,0,.16,0,.35-.09l.63-.36.72-.33a1.33,1.33,0,0,1,.64-.11v.3l-1.75,2.63a.49.49,0,0,0,0,.59,3.28,3.28,0,0,0,.55.64c.23.19.46.37.69.53A2.39,2.39,0,0,0,28.8,58.1Z"/>
            <path d="M55.66,60.14a5.08,5.08,0,0,1-2.13-1.52,6.21,6.21,0,0,1-1.06-2,10.48,10.48,0,0,1-.41-2.37c-.05-.85-.11-1.7-.18-2.56a8.7,8.7,0,0,1-1.67.12,8.24,8.24,0,0,1-1.43-.14,1.87,1.87,0,0,1-.87-.37.35.35,0,0,1-.06-.52,2.34,2.34,0,0,1,1-.58,14.81,14.81,0,0,1,2.41-.56,1.53,1.53,0,0,0,.65-.22,1.67,1.67,0,0,0,.5-.33,4,4,0,0,0,.49-1.28c.14-.61.3-1.28.46-2s.36-1.49.59-2.24a8.38,8.38,0,0,1,.89-2,3.08,3.08,0,0,1,1.3-1.15,2.35,2.35,0,0,1,1.88.15,2.12,2.12,0,0,1,.31.28l.43.42.43.43a2.53,2.53,0,0,1,.27.32,8.48,8.48,0,0,1-.22,3.08,6.77,6.77,0,0,1-2.41,3.6l-1.48,1.13a8.74,8.74,0,0,0-1.21,1.09,2.18,2.18,0,0,0-.54,1.38c0,.64-.07,1.23-.07,1.76a6,6,0,0,0,.18,1.5,4.43,4.43,0,0,0,.63,1.34,5.14,5.14,0,0,0,1.3,1.22,1.83,1.83,0,0,0,1.56.22,6.79,6.79,0,0,0,1.89-.77A19,19,0,0,0,61,56.28l1.59-1.2a7.2,7.2,0,0,1,1-.65c.19-.1.19,0,0,.44a22.44,22.44,0,0,1-1.23,2.45,8,8,0,0,1-1.67,2.08,4.82,4.82,0,0,1-2.21,1.13A4.5,4.5,0,0,1,55.66,60.14ZM54.47,46.67c0,.13-.07.37-.14.74a4.18,4.18,0,0,0-.11.75.19.19,0,0,0,.13,0,.17.17,0,0,0,.12,0l.34-.24.44-.34.43-.33A3.32,3.32,0,0,0,56,47,8.34,8.34,0,0,0,57.54,45,3.73,3.73,0,0,0,58,43.41a.82.82,0,0,0-.39-.8.91.91,0,0,0-.93.13A4,4,0,0,0,55.55,44,10.9,10.9,0,0,0,54.47,46.67Z"/>
            <path d="M66.35,59.07a5.25,5.25,0,0,1-1.19-2.27,18.1,18.1,0,0,1-.61-3.45,30.72,30.72,0,0,1-.06-4.1A32.17,32.17,0,0,1,65,45a25,25,0,0,1,1-3.84,10.39,10.39,0,0,1,1.6-3,4.32,4.32,0,0,1,2.15-1.52,3.54,3.54,0,0,1,2.69.43,4.07,4.07,0,0,1,1.1,1,12.75,12.75,0,0,1,1.09,1.57,17.25,17.25,0,0,1,.91,1.75c.26.58.45,1.07.58,1.46a10,10,0,0,1,0,1.14q0,.94-.06,2.28c0,.89,0,1.87,0,2.95s.12,2.13.26,3.15A14.43,14.43,0,0,0,77,55.3a5.39,5.39,0,0,0,1.18,2.08,2.67,2.67,0,0,0,1.88.81,5.2,5.2,0,0,0,2.76-.9,2.07,2.07,0,0,0,.71-1,4.39,4.39,0,0,0,.11-.86.94.94,0,0,1,.07-.46c0-.08.28,0,.67.18a2.39,2.39,0,0,1,.5,2.06,3.87,3.87,0,0,1-1.07,1.93,4.64,4.64,0,0,1-2.1,1.19,4,4,0,0,1-2.58-.17A5.93,5.93,0,0,1,76.67,58a12.49,12.49,0,0,1-1.9-4.64A12.57,12.57,0,0,1,74.09,55,15.51,15.51,0,0,1,73,56.8a12.43,12.43,0,0,1-1.43,1.75,5.86,5.86,0,0,1-1.65,1.22,3.28,3.28,0,0,1-1.76.32A2.94,2.94,0,0,1,66.35,59.07Zm.33-2.34c.42.89.92,1.37,1.49,1.45a2.22,2.22,0,0,0,1.74-.67,9.28,9.28,0,0,0,1.77-2.27,16.92,16.92,0,0,0,1.48-3.35A24.37,24.37,0,0,0,74.09,48a15.51,15.51,0,0,0,.11-4,10.38,10.38,0,0,0-1-3.45,5.68,5.68,0,0,0-2.38-2.45.2.2,0,0,0-.13,0h-.17a4.93,4.93,0,0,0-2,1.78,13.71,13.71,0,0,0-1.47,3,22.24,22.24,0,0,0-.94,3.68,24.46,24.46,0,0,0-.37,3.86,23,23,0,0,0,.18,3.58A9.94,9.94,0,0,0,66.68,56.73Z"/>
            <path d="M102.61,60.14A4.12,4.12,0,0,1,101,59.2a8.07,8.07,0,0,1-1.33-1.64,12.21,12.21,0,0,1-1-2c-.3-.73-.57-1.46-.8-2.19s-.44-1.41-.61-2.06-.32-1.2-.45-1.67h-.29a16.94,16.94,0,0,1-1.36,2.32,25.07,25.07,0,0,1-2,2.62,15.57,15.57,0,0,1-2.36,2.19,5.31,5.31,0,0,1-2.35,1.09,2.31,2.31,0,0,1-2-.66A5.74,5.74,0,0,1,85.05,54q-.18-3.52-.26-7t0-7a2.9,2.9,0,0,1,.39-.37,1.54,1.54,0,0,1,.58-.3.68.68,0,0,1,.54.1c.16.11.24.39.24.83V52.54a4.06,4.06,0,0,0,.09.78,3.75,3.75,0,0,0,.3.87,5,5,0,0,0,.46.78,1.54,1.54,0,0,0,.59.5,2.73,2.73,0,0,0,2.42,0,5.8,5.8,0,0,0,1.95-1.84,16.35,16.35,0,0,0,1.59-3q.72-1.73,1.32-3.39c.39-1.11.76-2.15,1.09-3.1a9.37,9.37,0,0,1,1-2.13.48.48,0,0,1,.16.16,1.31,1.31,0,0,0,.13.17l.45.58a4.66,4.66,0,0,1,.41.57c0,.45,0,1.06,0,1.84s0,1.63.13,2.56.18,1.89.33,2.89a23.28,23.28,0,0,0,.61,2.88,11.8,11.8,0,0,0,1,2.47,4.78,4.78,0,0,0,1.49,1.67,3.39,3.39,0,0,0,2,.52,6,6,0,0,0,2.73-1,2.16,2.16,0,0,0,.92-.89,2,2,0,0,0,.12-.84c0-.28,0-.58-.06-.87a1.72,1.72,0,0,1,.5-1.08,1.27,1.27,0,0,1,1.41.22,2.29,2.29,0,0,1,.54,1.45,4.8,4.8,0,0,1-.37,2,4.86,4.86,0,0,1-1.38,1.92,5.6,5.6,0,0,1-2.41,1.16A6.76,6.76,0,0,1,102.61,60.14Z"/>
            <path d="M114,60.14c0-.47,0-1.1,0-1.89s.07-1.66.09-2.6,0-1.9,0-2.89,0-1.92-.07-2.78a20.89,20.89,0,0,0-.24-2.27,2.9,2.9,0,0,0-.47-1.3,15,15,0,0,1-3.56,0c-.82-.15-1.23-.35-1.24-.6s.4-.51,1.24-.8a17.44,17.44,0,0,1,3.9-.61c0-.3,0-.82,0-1.58s0-1.55,0-2.39,0-1.63,0-2.37,0-1.27,0-1.56l-.12-.71c0-.29-.1-.61-.14-.94s-.09-.67-.12-1a3,3,0,0,1,0-.83.78.78,0,0,1,.39-.61,1.27,1.27,0,0,1,.65-.15,1.13,1.13,0,0,1,.61.22.64.64,0,0,1,.28.54V44.07q0,.38.93.36c.62,0,1.37-.07,2.26-.17l2.8-.32a14.15,14.15,0,0,1,2.53-.09,2.1,2.1,0,0,1,1.43.5c.24.29.1.78-.45,1.47a1.15,1.15,0,0,1-.3.18.78.78,0,0,1-.29.12c-1.34,0-2.75-.07-4.23,0a33,33,0,0,0-4.23.33c-.45.08-.69.49-.73,1.25a15.24,15.24,0,0,0,.19,2.76c.16,1.09.34,2.25.56,3.47a26,26,0,0,1,.38,3.36,5.83,5.83,0,0,1-.31,2.47,1.25,1.25,0,0,1-1.58.72.3.3,0,0,1-.18-.11A.29.29,0,0,1,114,60.14Z"/>
            <path d="M135.67,83.23a3.64,3.64,0,0,1-1.73-2.6,16.54,16.54,0,0,1-.31-4.6,33.25,33.25,0,0,1,.83-5.57A32.1,32.1,0,0,1,136.25,65a18.65,18.65,0,0,1,2.52-4.36,5.8,5.8,0,0,1,3.06-2.21c0-.15,0-.39.07-.72s0-.69.08-1.06.05-.73.07-1.06,0-.58,0-.72c0-.55,0-1.25,0-2.1V48.18a4.81,4.81,0,0,0,0-.91l-.26-.26c-.2.34-.59.94-1.19,1.78s-1.3,1.75-2.11,2.74a38.57,38.57,0,0,1-2.71,2.95,17.08,17.08,0,0,1-3,2.42,6.67,6.67,0,0,1-3,1.07,3.18,3.18,0,0,1-2.63-1.06,3,3,0,0,1-.8-1.72,13.22,13.22,0,0,1-.18-2.6,24.66,24.66,0,0,1,.22-3c.13-1.06.29-2.06.46-3s.34-1.81.5-2.56l.36-1.69a.9.9,0,0,1,.57-.57,1.32,1.32,0,0,1,.76,0,1.06,1.06,0,0,1,.61.41.83.83,0,0,1,.13.76q-.41,1.56-.72,3c-.21,1-.38,1.93-.52,2.9a28.22,28.22,0,0,0-.26,2.93,27.5,27.5,0,0,0,.06,3.12,1.89,1.89,0,0,0,1.82.87,5.63,5.63,0,0,0,2.3-.93,14.66,14.66,0,0,0,2.48-2.1c.84-.86,1.62-1.74,2.34-2.63s1.34-1.73,1.87-2.51.91-1.35,1.14-1.72a5.13,5.13,0,0,0,.53-1.26c.14-.47.29-.94.45-1.39a11.13,11.13,0,0,1,.56-1.32,2.57,2.57,0,0,1,.83-1L143.87,42V57.21a3.6,3.6,0,0,0,.87,0c.46,0,.86-.07,1.21-.07s.55.07.61.2-.24.41-.91.8l-1,.61a5.56,5.56,0,0,1-1.06.54c-.22,2.11-.43,4-.63,5.55s-.42,3.12-.66,4.58-.55,3-.89,4.49-.78,3.29-1.3,5.27c-.2.45-.42,1-.65,1.58a7.62,7.62,0,0,1-.86,1.63,2.82,2.82,0,0,1-1.2,1A2,2,0,0,1,135.67,83.23Zm1.19-2.34c.24.17.54-.15.89-1a25.53,25.53,0,0,0,1.06-3.28c.35-1.37.7-2.9,1-4.58s.63-3.31.89-4.87.46-2.93.61-4.12a14.69,14.69,0,0,0,.18-2.37,16.09,16.09,0,0,0-2.93,3.36,19.53,19.53,0,0,0-2.06,4.08,20.24,20.24,0,0,0-1.09,4.45,19.48,19.48,0,0,0-.08,4.51c0,.22.07.51.13.87s.13.72.19,1.06.12.64.17.89a1,1,0,0,0,.11.41Z"/>
          </g>
          <g class="cls-1">
            <g class="cls-1">
              <path d="M16.21,2a1.7,1.7,0,0,1,.45,2,1.25,1.25,0,0,1-1.55.33,6.4,6.4,0,0,1-1.43-1.15A4.43,4.43,0,0,0,10.09,2,3.49,3.49,0,0,0,7.25,4.59c-.61,2.33,0,4.16-.07,7.26,1,0,3.46-.15,4.41-.21.45,0,.31.57,0,.92l-4.41.08c.12,4.72.47,9.39.62,14.11,0,1.44,1,3.3,2.27,3.32l-8.21.14c.72,0,1.62-1.07,1.87-1.82S3.55,17.25,3.4,12.7L0,12.76c0-.7,0-.74,0-.74a23.37,23.37,0,0,0,3.38-.15A10.38,10.38,0,0,1,6,3.52c2.36-2.31,5.32-2.23,8.29-2a4.27,4.27,0,0,1,1.29.24A3,3,0,0,1,16.21,2Z"/>
            </g>
            <g class="cls-1">
              <path d="M34.51,12.29a1.26,1.26,0,0,1-2.19.87c-1.81-1.5-4.41,2-5.25,3.89a.75.75,0,0,0-.07.22l.12,11.36c0,.79,1.28,1.47,1.28,1.47L23,30.19s1.16-.67,1.3-1.42L24,12.56c-.1-1.14-1.66-1.33-1.66-1.33s3.17.87,4.26-.07c.89-.8.39,5.15.39,5.15v-.09c.21-.83,2.88-4.55,5.38-5.16A1.58,1.58,0,0,1,34.51,12.29Z"/>
            </g>
            <g class="cls-1">
              <path d="M53,22.64a1.73,1.73,0,0,1,.4,1.39,5.68,5.68,0,0,1-1.2,3,7.19,7.19,0,0,1-4.92,3.06A6.13,6.13,0,0,1,42,27.9a9.5,9.5,0,0,1-2-4.65,13.38,13.38,0,0,1,1.15-7.84c1.84-3.66,6.85-6.11,10-2.93a5,5,0,0,1,1.12,5.27,5.89,5.89,0,0,1-3.82,3,15.83,15.83,0,0,1-5.92.71,11.84,11.84,0,0,0,.22,3.67,4.87,4.87,0,0,0,1.91,2.9,4.5,4.5,0,0,0,2.63.56,4.55,4.55,0,0,0,2-.43,2.78,2.78,0,0,0,1.45-1.59,6,6,0,0,0,.24-1.84A3.38,3.38,0,0,1,51.53,23a1.07,1.07,0,0,1,1.28-.46C52.89,22.59,52.93,22.64,53,22.64ZM42.71,20.5c2.47,0,5-.09,7.16-1.39a3.76,3.76,0,0,0,1.67-1.87,3.32,3.32,0,0,0,.2-1.75,3.71,3.71,0,0,0-1.29-2.34c-2.09-1.67-4.82.35-6,2.42,0,0-.08.14-.11.18A17.72,17.72,0,0,0,42.71,20.5Z"/>
            </g>
            <g class="cls-1">
              <path d="M69.42,18c-.61-.12-.85-1-.75-1.74a10.21,10.21,0,0,0,.34-2.1C68.88,12.76,67.46,12,66.28,12a5.81,5.81,0,0,0-3.07.76,2.48,2.48,0,0,0-1.47,2.56,2.32,2.32,0,0,0,.7,1.16c2,2.24,4.66,3.68,6.46,6.14a5.66,5.66,0,0,1,1.21,4.26c-.46,1.89-2.34,2.84-4,3.13a7.89,7.89,0,0,1-3.92-.28A5.83,5.83,0,0,1,59,27.09a3.54,3.54,0,0,1-.49-1.74A1.57,1.57,0,0,1,59.38,24a.92.92,0,0,1,1.16.86A5.18,5.18,0,0,1,60.22,26a2,2,0,0,0,.56,1.7,2.71,2.71,0,0,0,1.46.8,6.73,6.73,0,0,0,5.19-.66,2.11,2.11,0,0,0,.93-.89c.41-.92-.22-2-.84-2.65-1.78-1.89-4.12-2.94-6-4.66a6.19,6.19,0,0,1-1.79-2.37c-1.71-4.69,4.44-7,7.34-6a5.32,5.32,0,0,1,3.55,5c0,.7-.39,1.58-.92,1.67Z"/>
            </g>
            <g class="cls-1">
              <path d="M91.57,28.49a1.89,1.89,0,0,0,1.5,1.32c-1.52,0-3,.1-4.55.13-.12-4.55-.28-9.18-.4-13.72a6.26,6.26,0,0,0-.66-3A2.87,2.87,0,0,0,85,12a5,5,0,0,0-4.56,4.23,14.81,14.81,0,0,0-.07,2.32c0,2.93.06,5.85.11,8.82a5.2,5.2,0,0,0,.22,1.7,1.45,1.45,0,0,0,1.09,1l-5.44.09A1.66,1.66,0,0,0,77.44,29a5.93,5.93,0,0,0,.16-1.84q-.21-11.73-.41-23.46a6.12,6.12,0,0,0-.3-2.18A1.91,1.91,0,0,0,75.68.18,20.47,20.47,0,0,1,80.05.06c.08,4.63.13,9.31.21,13.94A6.39,6.39,0,0,1,85,11,5.27,5.27,0,0,1,89.9,13.7c1,1.73,1.1,3.87,1.21,5.92.08,2.53.2,5,.28,7.56a4.18,4.18,0,0,0,0,.61A2.47,2.47,0,0,0,91.57,28.49Z"/>
            </g>
          </g>
        </g>
      </g>
    </g>
  </g>
</svg>
